<?xml version="1.0" standalone="no"?>
<!DOCTYPE svg PUBLIC "-//W3C//DTD SVG 20010904//EN"
 "http://www.w3.org/TR/2001/REC-SVG-20010904/DTD/svg10.dtd">
<svg version="1.0" xmlns="http://www.w3.org/2000/svg"
 width="16.000000pt" height="16.000000pt" viewBox="0 0 16.000000 16.000000"
 preserveAspectRatio="xMidYMid meet">
<metadata>
Created by potrace 1.11, written by Peter Selinger 2001-2013
</metadata>
<g transform="translate(0.000000,16.000000) scale(0.000201,-0.000201)"
fill="#000000" stroke="none">
<path d="M20234 56036 c-95 -43 -161 -120 -199 -231 -16 -47 -17 -227 -17
-2885 1 -1559 3 -2846 6 -2859 32 -144 123 -248 246 -281 35 -10 1706 -13
7814 -14 7190 -1 7774 0 7823 15 99 31 178 112 218 224 17 48 18 189 19 2880
1 1557 -2 2853 -7 2880 -20 124 -115 246 -218 279 -43 15 -799 16 -7841 15
l-7793 0 -51 -23z"/>
<path d="M40180 56044 c-95 -33 -173 -141 -194 -268 -9 -54 -12 -767 -10
-2896 l1 -2825 21 -66 c38 -116 120 -197 217 -215 53 -10 15493 -11 15569 -1
129 16 237 125 267 267 13 63 18 5610 5 5715 -16 123 -110 252 -212 288 -47
16 -436 17 -7834 17 -6991 -1 -7790 -3 -7830 -16z"/>
<path d="M20297 46009 c-48 -11 -122 -54 -163 -94 -45 -44 -73 -89 -96 -153
-20 -57 -20 -67 -20 -2877 0 -1551 3 -2838 6 -2860 21 -129 144 -259 276 -291
45 -11 5800 -10 5801 1 1 14 1 6245 0 6268 -1 16 -145 17 -2883 16 -1666 -1
-2899 -5 -2921 -10z"/>
<path d="M30303 46006 c-88 -28 -173 -112 -219 -216 -19 -44 -19 -91 -19
-2925 l0 -2880 29 -59 c36 -74 104 -141 176 -175 l55 -26 7783 -1 c4745 -1
7799 2 7825 7 111 25 215 109 265 217 l27 57 0 2866 0 2865 -34 67 c-42 82
-110 148 -194 187 l-62 30 -7795 -1 c-6409 0 -7802 -3 -7837 -13z"/>
<path d="M50186 42878 c1 -1729 2 -3145 3 -3148 0 -3 1186 -5 2634 -5 l2632 1
55 25 c71 33 115 71 156 134 67 106 62 -139 62 2986 -1 2782 -1 2835 -20 2893
-36 110 -117 199 -217 237 -50 18 -113 19 -2678 19 l-2628 0 1 -3142z"/>
<path d="M77 37983 c-2 -5 -3 -57 -3 -118 l1 -110 270 -2 c345 -2 325 -1 325
-14 0 -9 242 -678 440 -1219 15 -41 67 -183 114 -315 48 -132 91 -249 96 -260
5 -11 17 -45 28 -75 25 -73 105 -291 149 -410 19 -52 55 -151 79 -220 25 -69
51 -141 59 -160 8 -19 93 -251 189 -515 96 -264 254 -698 351 -965 98 -267
192 -525 210 -575 18 -49 97 -265 175 -480 78 -214 175 -480 215 -590 197
-543 357 -982 365 -1000 9 -20 308 -840 314 -860 2 -5 6 -17 9 -25 12 -31 235
-644 302 -830 15 -41 31 -86 37 -100 l11 -25 545 0 544 0 39 135 c21 74 108
378 194 675 86 297 158 547 160 555 3 14 87 306 282 980 47 162 91 318 98 345
8 28 48 167 89 310 42 143 78 267 80 276 3 9 23 81 46 160 23 79 46 158 50
174 10 37 244 852 307 1065 25 85 49 169 53 185 4 17 22 80 40 140 42 144 71
246 76 265 2 8 10 38 18 65 8 28 31 106 50 174 20 68 38 126 40 128 3 3 150
-437 283 -847 62 -193 318 -974 363 -1110 21 -63 106 -324 190 -580 190 -582
308 -943 401 -1225 40 -121 74 -224 75 -230 1 -5 28 -86 59 -180 30 -93 128
-390 216 -660 252 -770 260 -795 267 -796 8 -2 1112 -5 1112 -3 0 2 122 461
155 584 20 74 52 194 70 266 19 71 43 164 55 205 12 40 23 82 25 92 2 10 54
206 116 435 61 229 120 451 131 492 10 41 23 89 29 106 5 17 11 40 13 50 4 17
19 76 101 384 90 337 116 435 135 505 24 87 49 181 55 206 6 26 114 430 125
469 10 36 108 403 115 430 8 34 59 226 160 605 59 220 109 407 111 415 2 8 8
31 13 50 5 19 23 89 41 155 17 66 42 159 56 206 13 47 27 96 29 109 2 13 9 37
14 54 6 17 12 42 15 56 3 14 19 77 36 140 18 63 34 122 36 130 1 8 14 56 27
105 58 217 98 367 122 460 14 55 32 120 40 145 8 25 16 57 19 72 3 15 7 31 10
36 3 5 7 19 10 33 2 13 14 60 26 104 12 44 23 87 25 95 2 8 13 50 25 93 12 43
24 89 26 103 3 14 11 44 18 67 8 23 35 123 61 222 25 99 52 200 59 225 8 25
31 110 51 190 20 80 48 183 62 230 13 47 26 92 28 100 26 114 49 197 56 204 4
5 184 9 414 9 l405 -1 1 47 c1 54 1 173 0 184 -1 4 -563 7 -1250 7 l-1249 0 0
-119 1 -118 624 0 c343 0 626 -3 629 -6 3 -2 -5 -42 -16 -88 -12 -46 -23 -91
-25 -99 -2 -8 -33 -132 -70 -275 -36 -143 -104 -411 -151 -595 -47 -184 -96
-378 -110 -431 -14 -53 -27 -105 -29 -115 -2 -11 -29 -116 -59 -234 -46 -180
-166 -652 -182 -712 -2 -10 -6 -26 -8 -35 -3 -10 -32 -128 -66 -263 -34 -135
-63 -252 -66 -260 -2 -8 -17 -69 -34 -135 -74 -288 -202 -791 -205 -805 -2 -8
-29 -116 -60 -240 -31 -124 -59 -232 -60 -240 -2 -8 -13 -49 -24 -90 -21 -80
-160 -625 -166 -650 -3 -14 -21 -86 -29 -120 -63 -246 -78 -308 -81 -320 -11
-49 -49 -189 -51 -187 -2 2 -193 602 -198 622 -1 6 -19 64 -40 130 -21 66 -67
212 -102 325 -36 113 -76 239 -89 280 -55 173 -197 626 -200 635 -1 6 -5 17
-8 25 -3 8 -22 69 -42 135 -20 66 -59 188 -85 270 -27 83 -94 294 -149 470
-55 176 -106 340 -114 365 -8 25 -29 92 -47 150 -17 58 -40 130 -50 160 -11
30 -44 136 -75 235 -31 99 -83 263 -115 365 -32 102 -98 309 -145 460 -172
548 -273 866 -359 1138 -34 108 -39 132 -26 133 8 0 173 1 365 2 l350 2 3 118
3 117 -1938 0 -1938 0 0 -117 0 -118 335 -2 c184 -1 344 -2 356 -2 17 -1 25
-14 43 -73 12 -40 26 -84 31 -98 5 -14 32 -99 60 -190 28 -91 74 -237 102
-325 27 -88 61 -194 73 -235 13 -41 53 -167 89 -280 36 -113 66 -211 66 -218
0 -7 4 -20 10 -30 5 -9 38 -111 74 -227 102 -331 146 -471 186 -595 26 -80 35
-123 30 -140 -5 -14 -51 -176 -105 -360 -53 -184 -125 -434 -160 -555 -154
-534 -237 -821 -240 -835 -2 -8 -18 -62 -35 -120 -17 -58 -105 -361 -195 -675
-248 -863 -285 -989 -291 -1005 -3 -8 -24 40 -48 110 -24 69 -68 199 -99 290
-31 91 -110 325 -177 520 -67 195 -138 407 -160 470 -21 63 -100 295 -175 515
-75 220 -149 438 -165 485 -15 47 -85 252 -155 455 -69 204 -141 415 -160 470
-19 55 -53 154 -75 220 -23 66 -43 125 -44 130 -2 6 -6 17 -9 25 -3 8 -22 65
-42 125 -21 61 -71 209 -112 330 -42 121 -113 330 -158 465 -91 266 -349 1024
-413 1212 -22 65 -43 122 -47 128 -7 12 -35 11 471 12 l401 1 0 118 0 119
-2028 0 c-1115 0 -2030 -3 -2032 -7z"/>
<path d="M38784 37873 l1 -118 380 -2 c209 -1 391 -2 405 -2 l25 -1 0 -4135 0
-4135 -75 -1 c-41 0 -224 0 -406 0 l-331 -1 0 -119 0 -120 2126 4 c1169 2
2153 7 2186 9 33 3 108 9 166 12 59 4 115 8 125 10 11 2 60 7 109 10 50 4 101
9 115 11 14 2 50 6 80 10 30 3 66 8 80 10 14 2 48 7 75 10 28 3 61 8 75 10 14
2 70 11 125 20 163 25 480 95 620 137 295 87 444 144 685 262 603 295 964 812
1056 1511 3 28 8 57 9 66 16 81 22 430 11 564 -70 834 -545 1409 -1426 1728
-108 39 -235 79 -289 93 -9 2 -70 17 -136 33 -66 16 -131 32 -145 35 -137 27
-200 39 -290 52 -58 9 -112 18 -120 19 -8 2 -26 4 -40 4 -27 1 -58 17 -49 25
3 3 23 8 45 11 80 13 243 48 369 81 540 139 990 397 1240 709 22 28 42 52 45
55 16 15 63 86 107 160 92 153 178 373 209 535 2 11 6 31 9 45 3 14 8 42 11
64 3 21 7 48 10 60 21 110 23 506 4 634 -5 26 -11 69 -14 96 -24 179 -118 450
-205 591 -36 59 -75 119 -81 125 -3 3 -18 23 -34 45 -112 152 -329 328 -546
442 -183 96 -526 222 -732 269 -10 2 -26 6 -35 8 -70 16 -274 58 -298 61 -16
3 -41 7 -55 10 -13 2 -42 7 -65 10 -22 3 -67 10 -100 15 -33 5 -85 12 -115 15
-30 3 -62 8 -70 10 -8 2 -53 7 -100 10 -47 4 -98 8 -113 10 -16 2 -72 6 -125
10 -53 4 -128 10 -167 13 -38 3 -1031 7 -2206 9 l-2137 4 2 -118z m3781 -127
c380 -23 646 -175 770 -441 63 -135 120 -352 145 -550 6 -49 13 -103 15 -120
15 -104 20 -306 20 -805 0 -635 -3 -690 -50 -989 -10 -65 -46 -196 -77 -281
-105 -290 -253 -459 -487 -559 -74 -31 -193 -65 -267 -76 -21 -4 -50 -8 -64
-11 -14 -3 -140 -7 -281 -9 l-257 -4 0 1922 0 1922 32 5 c40 6 370 4 501 -4z
m-35 -4090 c58 -3 116 -8 130 -11 14 -2 43 -6 65 -9 91 -11 235 -45 330 -78
271 -95 454 -248 584 -488 119 -221 178 -451 208 -805 16 -193 8 -1201 -12
-1390 -1 -16 -6 -59 -9 -95 -4 -36 -9 -72 -11 -80 -2 -8 -7 -35 -10 -60 -4
-25 -13 -76 -22 -115 -8 -38 -16 -79 -19 -90 -2 -11 -13 -51 -24 -90 -11 -38
-22 -77 -24 -86 -6 -23 -59 -153 -89 -219 -63 -136 -181 -281 -297 -366 -135
-99 -342 -170 -553 -189 -49 -4 -467 -8 -678 -6 l-67 1 0 2088 c0 1148 1 2089
3 2092 4 7 359 4 495 -4z"/>
<path d="M62307 36864 c-1 -1 -76 -4 -167 -8 -146 -5 -283 -16 -390 -31 -118
-16 -178 -25 -200 -30 -14 -3 -37 -7 -53 -10 -402 -74 -805 -222 -1137 -417
-81 -48 -272 -175 -315 -210 -212 -172 -382 -332 -496 -468 -30 -35 -62 -73
-71 -84 -85 -95 -291 -421 -367 -581 -159 -330 -284 -711 -335 -1015 -3 -19
-8 -46 -10 -60 -24 -128 -43 -257 -51 -350 -3 -25 -7 -63 -9 -85 -5 -38 -12
-142 -21 -300 -6 -96 -6 -501 0 -605 10 -182 16 -279 20 -302 2 -12 6 -54 10
-93 3 -38 10 -97 15 -130 5 -33 12 -80 15 -105 11 -82 46 -264 67 -345 11 -44
22 -88 24 -99 10 -55 94 -326 104 -341 4 -5 10 -22 14 -37 17 -73 145 -348
229 -493 55 -96 177 -274 250 -365 58 -72 268 -287 352 -360 302 -264 715
-486 1142 -615 119 -36 287 -80 338 -88 17 -3 64 -12 105 -20 41 -9 111 -21
155 -27 44 -6 91 -13 105 -16 14 -2 58 -6 97 -9 40 -4 83 -8 95 -11 119 -24
928 -23 1041 1 12 2 54 7 92 10 93 8 134 12 169 19 16 3 50 8 75 11 62 9 211
35 307 55 28 6 62 13 75 15 14 3 97 22 185 44 613 152 763 175 846 129 43 -23
106 -96 136 -155 15 -32 18 -33 79 -33 l63 0 2 98 c1 105 1 109 13 447 4 127
9 280 10 340 5 158 14 467 20 630 3 77 7 212 10 300 12 428 17 550 22 557 9
16 -33 22 -149 19 -49 -1 -58 -4 -64 -23 -32 -106 -300 -647 -439 -888 -67
-117 -245 -397 -275 -433 -5 -6 -42 -55 -82 -107 -201 -267 -451 -505 -663
-632 -145 -87 -336 -166 -440 -182 -56 -9 -95 -15 -130 -21 -16 -3 -71 -5
-120 -5 -518 0 -923 237 -1213 711 -88 143 -198 383 -254 554 -25 75 -68 215
-73 235 -2 8 -16 64 -30 124 -28 113 -32 131 -40 181 -3 17 -8 37 -10 45 -4
15 -9 41 -20 114 -4 21 -8 47 -10 58 -3 11 -7 46 -11 77 -3 31 -8 59 -10 62
-2 3 -6 32 -9 65 -3 32 -7 75 -10 94 -4 36 -12 118 -20 205 -6 78 -16 230 -21
340 -5 116 -5 1548 0 1645 12 227 18 323 21 356 2 22 7 75 10 119 4 44 9 89
11 100 2 10 6 49 9 85 4 36 8 72 10 80 2 8 7 40 10 70 6 58 27 177 50 295 8
39 16 81 19 95 19 106 92 358 142 495 80 214 226 483 332 608 113 134 308 293
425 346 108 49 157 70 157 66 0 -3 17 2 38 10 183 70 478 79 757 21 58 -12
239 -79 289 -108 11 -5 40 -22 65 -36 267 -149 522 -409 792 -807 74 -110 143
-217 178 -278 10 -17 41 -70 68 -117 121 -208 346 -654 409 -810 l14 -35 88 2
c48 1 92 2 98 2 7 1 10 27 8 79 -8 211 -15 410 -19 532 -3 74 -7 189 -10 255
-3 66 -7 185 -10 265 -3 80 -7 208 -10 285 -3 77 -8 194 -10 260 -2 66 -7 197
-11 290 -4 94 -8 208 -10 255 -1 47 -3 90 -3 95 -1 6 -27 11 -60 11 -59 0 -60
-1 -81 -38 -37 -67 -97 -134 -134 -152 -50 -23 -123 -29 -197 -16 -35 7 -76
14 -91 17 -35 5 -327 77 -579 142 -108 28 -212 53 -230 56 -19 3 -65 12 -104
20 -38 8 -90 17 -115 21 -25 3 -54 8 -65 9 -107 17 -147 23 -235 30 -41 4 -86
9 -100 11 -42 7 -487 23 -493 18z"/>
<path d="M76237 36864 c-1 -1 -67 -4 -147 -8 -80 -3 -156 -8 -170 -11 -14 -2
-45 -6 -70 -9 -189 -19 -512 -101 -680 -173 -337 -145 -561 -301 -805 -564
-60 -64 -164 -191 -191 -234 -10 -16 -23 -35 -29 -41 -12 -12 -150 -243 -151
-253 0 -3 -17 -40 -36 -81 -75 -156 -149 -409 -174 -590 -3 -25 -8 -53 -10
-64 -6 -32 -17 -229 -17 -301 0 -90 12 -334 17 -360 2 -11 7 -49 11 -85 5 -52
31 -197 50 -280 44 -193 127 -405 223 -570 119 -202 271 -367 497 -537 297
-224 575 -366 1000 -513 141 -48 480 -156 517 -165 163 -37 742 -223 873 -280
17 -8 54 -23 84 -35 185 -72 509 -254 616 -345 59 -50 134 -127 174 -178 76
-99 155 -273 176 -387 4 -19 8 -42 10 -50 31 -153 22 -396 -20 -560 -76 -293
-257 -501 -578 -661 -148 -75 -275 -114 -497 -155 -19 -3 -116 -8 -215 -9
-164 -3 -308 8 -395 30 -14 4 -36 9 -50 11 -51 9 -204 56 -276 84 -387 154
-733 412 -1137 848 -138 150 -362 430 -478 597 -18 28 -36 52 -39 55 -10 10
-230 358 -230 364 0 2 -22 41 -48 87 -27 46 -67 120 -90 164 l-42 81 -87 -2
c-49 -1 -91 -2 -94 -3 -3 0 -5 -13 -3 -28 1 -16 5 -95 8 -178 8 -185 14 -353
22 -510 3 -66 7 -172 9 -235 5 -124 12 -287 21 -470 2 -63 7 -164 9 -225 9
-237 15 -394 20 -485 3 -52 8 -165 11 -250 3 -85 8 -158 10 -162 2 -4 37 -6
77 -5 l72 1 28 59 c75 157 174 258 255 259 53 0 345 -49 487 -82 39 -9 165
-33 234 -45 19 -3 37 -8 40 -10 4 -2 27 -6 51 -10 25 -4 72 -13 105 -20 33 -8
76 -16 95 -19 19 -3 46 -8 60 -11 97 -20 362 -61 455 -70 33 -4 67 -8 75 -10
8 -2 49 -7 90 -10 41 -4 86 -9 100 -11 145 -25 724 -24 910 1 71 10 106 15
130 19 14 3 54 10 90 16 102 18 214 48 357 96 177 59 319 125 512 239 24 15
185 127 191 134 3 3 28 24 55 45 77 61 230 212 305 302 61 72 190 248 190 259
0 2 12 21 26 42 48 71 152 298 197 429 43 126 98 345 113 449 3 28 8 59 11 70
2 11 6 49 9 85 3 36 7 81 9 100 6 54 7 449 1 500 -3 25 -8 72 -11 105 -3 33
-8 69 -10 80 -3 11 -7 36 -9 55 -5 31 -16 91 -30 157 -16 76 -61 222 -95 309
-116 297 -275 532 -481 709 -30 26 -66 57 -80 69 -255 219 -483 347 -883 495
-289 108 -470 167 -672 221 -16 5 -61 18 -100 29 -38 12 -79 23 -90 25 -11 2
-85 23 -164 45 -80 23 -154 43 -165 45 -66 13 -417 126 -501 161 -413 172
-622 291 -771 440 -214 213 -286 484 -230 860 7 48 48 178 72 232 81 177 265
377 419 455 22 11 47 26 55 33 34 27 200 86 345 122 22 5 103 20 150 27 128
20 388 26 500 12 301 -37 619 -182 881 -402 326 -274 739 -793 1059 -1329 121
-203 129 -217 155 -267 27 -52 41 -57 144 -48 l59 5 -3 80 c-1 44 -4 116 -5
160 -2 44 -6 159 -10 255 -3 96 -8 231 -10 300 -10 311 -15 474 -20 585 -6
135 -12 313 -20 584 -3 101 -8 187 -10 191 -2 4 -29 6 -60 5 -54 -1 -57 -2
-84 -44 -42 -63 -105 -126 -148 -147 -46 -22 -139 -25 -227 -7 -34 6 -72 14
-86 17 -103 20 -308 69 -445 106 -44 12 -84 23 -90 24 -5 2 -30 8 -55 15 -25
7 -52 14 -60 16 -8 2 -45 10 -81 19 -183 42 -443 86 -609 101 -115 10 -447 24
-453 19z"/>
<path d="M12919 36745 c-1 0 -2 -46 -3 -102 l-2 -103 317 0 317 0 -2 -3547 -1
-3548 -305 -1 c-168 -1 -310 -2 -315 -3 -6 0 -10 -41 -10 -101 l0 -100 1673 0
1673 0 -3 103 -3 102 -305 0 -305 0 0 1745 0 1745 1063 1 1062 2 -2 -1747 -3
-1746 -312 0 c-292 0 -313 -1 -314 -17 0 -10 0 -47 0 -83 0 -36 0 -74 0 -85 1
-20 8 -20 1679 -20 l1678 0 -1 100 c0 81 -3 100 -15 101 -8 1 -150 2 -315 3
l-300 1 -1 3548 -1 3547 316 0 317 0 -1 100 c0 59 -4 101 -10 101 -5 1 -760 2
-1677 3 l-1668 1 -1 -25 c0 -14 -1 -60 -2 -102 l-2 -78 318 0 317 0 0 -1660 0
-1660 -22 -1 c-13 0 -491 0 -1063 0 l-1040 -1 -3 1661 -2 1661 310 0 311 0 -3
103 -3 102 -1667 0 c-918 0 -1669 0 -1669 0z"/>
<path d="M20983 36736 c-4 -5 -6 -51 -7 -102 l-1 -94 296 0 297 0 0 -3532 c0
-1943 -1 -3540 -4 -3548 -3 -13 -43 -15 -294 -15 l-290 1 -1 -36 c-1 -38 -1
-124 0 -152 1 -17 86 -18 1636 -18 l1635 0 0 103 0 102 -292 0 -293 0 -3 3548
-2 3547 295 0 295 0 0 103 0 102 -1631 0 c-955 0 -1633 -4 -1636 -9z"/>
<path d="M25015 36740 c-2 -3 -6 -72 -9 -155 -4 -82 -8 -202 -11 -265 -3 -63
-7 -173 -10 -245 -3 -71 -7 -186 -10 -255 -3 -69 -7 -174 -10 -235 -2 -60 -6
-173 -10 -250 -3 -77 -7 -198 -10 -270 -3 -71 -7 -186 -10 -255 -10 -242 -14
-337 -21 -515 -3 -99 -7 -193 -7 -210 l-2 -30 96 -2 c53 0 100 2 105 5 6 4 32
75 58 157 27 83 52 155 56 160 3 6 12 30 19 55 53 184 305 814 431 1075 100
207 149 294 253 450 210 315 504 500 872 550 72 10 335 16 336 8 7 -44 2
-7036 -5 -7041 -5 -3 -211 -5 -457 -5 l-447 0 0 -113 1 -114 1958 0 1957 0 -2
113 -1 112 -448 1 c-246 1 -450 4 -453 7 -5 4 -9 6359 -5 6955 l1 93 153 -6
c153 -5 201 -9 247 -21 14 -3 38 -8 53 -11 47 -8 201 -60 262 -88 146 -70 314
-207 417 -342 42 -54 128 -181 128 -187 0 -2 23 -43 51 -92 137 -235 354 -739
519 -1199 28 -78 180 -518 180 -520 0 -1 46 -1 103 -2 l103 -1 -2 52 c-1 28
-5 130 -8 226 -4 96 -9 213 -11 260 -2 47 -7 155 -10 240 -3 85 -8 205 -10
265 -3 61 -7 178 -10 260 -3 83 -7 195 -10 250 -3 55 -7 170 -11 255 -3 85 -7
191 -9 235 -1 44 -6 163 -10 265 -4 102 -9 212 -10 245 -2 33 -4 78 -4 100
l-1 40 -3161 0 c-1738 0 -3162 -2 -3164 -5z"/>
<path d="M32069 36740 c-1 -3 -2 -54 -3 -114 -1 -84 1 -109 12 -114 8 -2 150
-5 315 -6 l302 -1 1 -3512 1 -3513 -51 -1 c-28 0 -170 -1 -316 -2 l-265 -2 0
-117 -1 -118 2943 0 2943 0 1 28 c1 15 3 52 4 82 2 30 6 141 9 245 4 105 9
233 11 285 7 170 17 433 20 540 6 178 16 471 20 555 2 44 6 163 10 265 3 102
8 219 10 261 l5 76 -109 1 -109 1 -27 -87 c-70 -227 -167 -452 -278 -645 -86
-150 -100 -173 -120 -195 -9 -10 -17 -22 -17 -25 0 -4 -6 -15 -14 -24 -8 -10
-53 -67 -101 -127 -130 -163 -229 -267 -403 -418 -100 -88 -344 -251 -439
-296 -21 -9 -40 -20 -43 -23 -23 -27 -423 -169 -548 -194 -92 -19 -250 -45
-309 -50 -37 -4 -88 -8 -113 -11 -25 -2 -173 -5 -330 -5 l-285 -1 -3 1713 c-1
1128 1 1715 8 1719 23 14 422 2 515 -16 90 -17 140 -30 200 -51 338 -122 560
-357 744 -793 18 -41 36 -84 41 -95 5 -11 23 -65 41 -120 17 -55 36 -109 40
-120 10 -24 59 -206 65 -244 8 -41 19 -46 110 -46 68 0 84 3 85 15 4 79 3
3144 -2 3151 -3 6 -41 9 -84 7 -75 -3 -78 -4 -82 -28 -6 -41 -72 -270 -99
-345 -39 -104 -63 -159 -121 -272 -154 -301 -362 -522 -610 -647 -77 -38 -213
-81 -291 -92 -26 -3 -56 -8 -67 -10 -18 -4 -278 -6 -437 -5 l-58 1 0 1655 0
1654 328 -4 c180 -3 345 -7 367 -9 22 -3 65 -8 95 -11 178 -18 347 -54 515
-110 331 -109 547 -258 777 -539 225 -274 423 -622 645 -1133 l36 -83 98 0 98
0 -4 73 c-2 39 -6 117 -9 172 -4 55 -8 152 -11 215 -3 63 -7 149 -10 190 -6
120 -15 286 -20 410 -3 63 -7 151 -10 195 -3 44 -7 132 -10 195 -5 113 -8 171
-20 400 -3 63 -8 148 -10 188 -2 41 -6 77 -10 80 -8 8 -5564 10 -5566 2z"/>
<path d="M46920 36643 l0 -103 349 0 348 0 0 -3548 0 -3547 -349 0 -348 0 0
-102 0 -103 1743 0 1742 0 0 100 c1 55 -2 101 -5 101 -3 1 -158 2 -345 3
l-340 1 -3 1793 -2 1792 32 1 c161 3 624 0 663 -5 223 -30 371 -127 458 -301
27 -54 70 -178 83 -235 4 -19 9 -39 10 -45 5 -22 13 -73 19 -115 3 -25 8 -56
10 -70 13 -71 18 -271 20 -830 1 -338 5 -653 9 -700 13 -165 20 -237 31 -310
2 -14 7 -45 10 -70 28 -198 99 -440 172 -584 92 -183 209 -308 398 -423 127
-78 375 -158 550 -178 21 -3 46 -7 55 -9 90 -26 708 -27 835 -1 11 2 42 7 68
10 280 33 517 132 657 274 124 126 217 310 294 577 34 120 89 373 102 469 3
28 7 52 9 55 2 3 6 33 10 66 l6 62 -67 7 c-37 4 -78 9 -91 11 -26 5 -29 -1
-38 -61 -7 -49 -40 -211 -64 -318 -17 -74 -71 -236 -99 -297 -81 -178 -232
-268 -397 -236 -126 24 -195 125 -220 321 -4 32 -8 66 -10 75 -11 59 -18 317
-20 770 -2 289 -6 561 -9 605 -9 129 -17 219 -21 235 -3 8 -7 31 -9 50 -38
297 -144 578 -280 745 -23 27 -48 58 -56 68 -29 36 -159 137 -237 185 -99 60
-227 119 -348 160 -155 52 -355 99 -547 128 -31 4 -48 12 -48 20 0 8 6 14 13
15 6 0 19 2 27 3 8 2 47 6 86 10 39 4 80 8 90 10 11 2 42 7 69 10 187 25 507
108 645 168 480 209 709 475 829 963 20 83 23 96 40 230 22 161 30 443 17 580
-12 121 -18 180 -22 200 -2 11 -9 47 -14 80 -79 451 -348 829 -710 997 -218
101 -545 202 -770 238 -36 5 -76 12 -90 14 -24 5 -131 19 -230 30 -25 3 -76 8
-115 11 -38 3 -90 7 -115 10 -100 10 -198 15 -550 31 -69 3 -981 7 -2027 8
l-1903 1 0 -102z m3410 -117 c46 -6 106 -17 220 -41 8 -2 44 -13 80 -25 310
-105 481 -300 555 -635 19 -84 25 -115 31 -160 2 -22 7 -51 9 -65 16 -100 20
-217 20 -590 0 -374 -5 -541 -19 -630 -2 -14 -7 -46 -10 -71 -37 -264 -127
-513 -246 -674 -151 -204 -364 -323 -680 -381 -19 -3 -158 -8 -307 -11 l-273
-5 0 1652 0 1652 283 -5 c155 -3 307 -8 337 -11z"/>
<path d="M54699 36730 c-1 -23 -1 -163 0 -177 1 -10 67 -13 295 -13 l294 0 0
-3544 c0 -2652 -3 -3546 -12 -3548 -6 -3 -138 -4 -293 -4 -277 1 -283 1 -284
-19 -1 -28 -1 -157 0 -172 1 -10 335 -13 1636 -13 l1635 0 0 103 0 102 -292 0
-293 0 -3 3548 -2 3547 295 0 295 0 0 103 0 102 -1635 0 c-1446 0 -1635 -2
-1636 -15z"/>
<path d="M65899 36725 c0 -11 -2 -57 -2 -103 l-2 -82 297 0 296 0 -1 -3547 -2
-3548 -294 0 -294 0 0 -85 c1 -47 1 -93 2 -102 1 -17 86 -18 1636 -18 l1635 0
0 103 0 102 -292 0 -293 0 0 1699 c0 1502 2 1699 15 1702 8 1 29 5 45 9 30 6
31 5 88 -107 31 -62 95 -185 140 -273 144 -277 277 -534 360 -695 43 -85 103
-200 132 -255 29 -55 104 -201 168 -325 64 -124 134 -259 156 -300 23 -41 43
-82 47 -90 3 -8 10 -23 15 -33 6 -10 42 -80 81 -155 39 -76 103 -200 143 -277
40 -77 112 -216 160 -310 48 -93 107 -206 130 -250 60 -113 115 -224 116 -232
0 -5 6 -15 12 -23 20 -25 37 -59 37 -73 0 -10 -51 -12 -241 -12 -197 0 -242
-2 -247 -13 -4 -12 -6 -114 -3 -174 1 -17 90 -18 1721 -18 1369 0 1720 3 1721
13 3 42 0 177 -4 184 -3 4 -132 8 -287 8 -179 0 -284 3 -289 10 -5 5 -68 127
-141 270 -73 143 -183 359 -245 480 -123 240 -303 593 -483 945 -63 124 -164
322 -225 440 -60 118 -116 229 -124 245 -8 17 -19 38 -24 48 -10 18 -70 135
-336 657 -69 135 -178 349 -243 475 -65 127 -175 343 -245 480 -148 290 -363
710 -446 873 l-58 113 77 87 c42 48 83 94 92 102 8 8 49 53 90 100 41 47 77
87 80 90 7 7 80 88 170 190 41 46 86 96 100 111 14 15 50 55 80 90 30 34 66
74 80 89 14 15 40 45 59 66 19 22 71 80 116 129 45 50 97 108 116 129 46 52
67 77 109 122 20 22 69 77 110 124 41 47 77 87 80 90 3 3 68 75 144 160 77 85
171 190 210 234 39 43 84 94 100 112 l29 34 322 0 322 0 -1 103 -1 102 -937 0
c-619 0 -938 -3 -939 -10 -4 -52 -3 -179 2 -186 3 -5 191 -10 422 -11 l416 -3
-27 -31 c-25 -28 -153 -171 -177 -198 -6 -6 -53 -58 -105 -116 -52 -58 -111
-123 -131 -145 -20 -22 -60 -67 -90 -101 -30 -33 -90 -100 -134 -148 -44 -49
-88 -98 -98 -110 -10 -12 -51 -57 -90 -101 -40 -43 -94 -104 -122 -135 -27
-31 -84 -94 -126 -140 -42 -47 -122 -137 -179 -200 -335 -374 -440 -489 -470
-521 -14 -15 -34 -37 -44 -50 -18 -22 -149 -169 -186 -209 -26 -28 -174 -192
-193 -214 -44 -51 -349 -389 -356 -396 -4 -3 -78 -86 -166 -185 -319 -360
-322 -363 -367 -371 l-38 -6 0 1691 0 1691 295 0 295 0 0 103 0 102 -1635 0
c-1628 0 -1635 0 -1636 -20z"/>
<path d="M23600 25435 l0 -1875 105 0 c102 0 105 1 106 23 0 27 0 3673 0 3705
-1 21 -4 22 -106 22 l-105 0 0 -1875z"/>
<path d="M49725 25435 l0 -1875 106 0 107 0 -1 1875 0 1875 -106 0 -106 0 0
-1875z"/>
<path d="M44291 26297 c-13 -50 -66 -254 -118 -452 -52 -198 -97 -367 -98
-375 -2 -8 -33 -125 -68 -260 -36 -135 -67 -252 -69 -260 -2 -13 13 -15 91
-15 l95 0 63 240 c35 132 65 249 67 260 3 11 16 62 30 112 14 51 28 103 30
115 3 13 14 54 24 92 l18 69 68 -164 c38 -90 78 -184 89 -209 27 -63 34 -80
127 -300 45 -107 90 -212 100 -234 l17 -38 31 73 c17 41 97 229 177 419 81
190 151 359 157 375 29 79 33 74 76 -97 23 -90 69 -266 102 -393 33 -126 65
-251 71 -277 l11 -48 95 0 95 0 -6 28 c-3 15 -8 36 -10 47 -3 11 -25 99 -51
195 -26 96 -48 182 -51 190 -2 8 -12 49 -23 90 -49 190 -83 316 -110 417 -17
60 -32 121 -35 134 -3 13 -19 76 -36 139 -17 63 -36 139 -42 168 -14 67 -13
69 -117 -183 -46 -110 -89 -213 -96 -230 -8 -16 -48 -113 -90 -215 -43 -102
-85 -203 -95 -225 -10 -22 -21 -51 -25 -65 -24 -78 -21 -83 -244 448 -118 279
-217 510 -220 514 -4 4 -17 -34 -30 -85z"/>
<path d="M63045 25661 l0 -731 96 0 96 0 -1 495 c-1 272 1 495 3 495 2 0 53
-51 114 -112 60 -62 254 -261 431 -441 176 -181 358 -367 404 -415 l82 -85 1
59 c0 32 0 361 1 729 l0 670 -96 3 -96 3 0 -501 0 -500 -62 64 c-35 35 -184
189 -333 341 -148 153 -353 363 -455 467 l-185 189 0 -730z"/>
<path d="M13776 26137 c-60 -133 -125 -276 -144 -317 -19 -41 -54 -120 -79
-175 -178 -396 -309 -686 -320 -707 -2 -5 42 -8 99 -8 l103 0 80 180 79 180
297 0 298 0 7 -22 c4 -13 27 -66 51 -118 25 -52 54 -117 65 -145 32 -76 32
-76 140 -73 l96 3 -48 105 c-26 58 -80 177 -120 265 -40 88 -82 183 -95 210
-12 28 -61 133 -108 235 -46 102 -108 237 -137 300 -28 63 -65 144 -82 180
-17 36 -39 84 -49 108 -10 23 -20 42 -21 42 -2 0 -52 -109 -112 -243z m159
-302 c25 -53 45 -97 45 -100 0 -2 22 -50 49 -107 27 -56 56 -120 64 -140 l16
-38 -220 0 c-120 0 -219 2 -219 4 0 3 18 44 40 91 22 47 40 88 40 90 0 2 15
37 34 77 19 40 49 106 67 146 18 39 34 72 36 72 2 0 24 -43 48 -95z"/>
<path d="M19760 26347 c-28 -65 -73 -164 -106 -235 -19 -40 -34 -74 -34 -77 0
-2 -15 -37 -34 -77 -19 -40 -89 -194 -156 -343 -67 -148 -133 -294 -146 -322
-13 -29 -35 -77 -48 -105 -13 -29 -45 -99 -69 -155 l-46 -103 105 0 c57 0 104
4 104 9 0 5 15 42 34 83 18 40 46 102 62 138 16 35 36 78 44 95 l15 30 295 3
295 2 80 -180 80 -179 103 -1 102 0 -14 33 c-12 27 -54 119 -211 462 -15 33
-45 98 -66 143 -22 46 -39 85 -39 87 0 2 -22 51 -50 110 -27 59 -50 108 -50
110 0 1 -22 49 -48 106 -57 121 -75 160 -132 289 -23 52 -45 98 -49 102 -3 4
-13 -7 -21 -25z m133 -662 l105 -230 -216 -3 c-118 -1 -217 -1 -218 1 -2 2 44
110 103 241 58 130 110 233 114 229 4 -4 55 -111 112 -238z"/>
<path d="M46745 25658 l0 -723 96 -3 96 -3 -1 496 c-1 272 1 495 4 495 2 0 53
-51 113 -112 60 -62 250 -257 422 -433 172 -176 354 -362 404 -414 l91 -94 1
49 c0 61 0 1372 0 1397 -1 15 -12 17 -96 17 l-95 0 0 -501 0 -500 -119 123
c-66 68 -173 177 -238 244 -65 67 -241 248 -392 403 -151 154 -277 281 -280
281 -3 0 -6 -325 -6 -722z"/>
<path d="M51999 26373 c-1 -17 -8 -42 -28 -116 -13 -43 -24 -87 -26 -97 -3
-17 -54 -209 -92 -350 -8 -30 -16 -63 -18 -72 -2 -9 -15 -61 -30 -115 -14 -54
-46 -176 -71 -270 -24 -95 -49 -184 -54 -198 -5 -14 -8 -25 -5 -25 2 0 -1 -15
-6 -32 -6 -18 -16 -55 -23 -83 -8 -27 -17 -58 -21 -68 -7 -16 0 -18 91 -15
l99 3 32 125 c18 69 44 168 57 220 14 52 43 167 67 255 23 88 49 189 58 224
l17 64 114 -269 c62 -148 129 -305 147 -349 19 -44 47 -111 63 -150 16 -38 39
-94 52 -124 l24 -53 74 173 c40 96 77 181 81 189 4 8 43 101 87 205 43 105 96
231 118 282 l38 92 37 -142 c20 -78 71 -278 114 -444 l78 -303 98 0 c98 0 99
0 89 23 -8 19 -97 357 -105 397 -4 19 -80 310 -105 400 -10 36 -51 192 -92
347 -40 156 -75 283 -78 283 -3 0 -32 -64 -64 -142 -33 -79 -69 -165 -81 -193
-12 -27 -30 -70 -40 -95 -10 -25 -26 -64 -36 -87 -11 -24 -19 -45 -19 -48 0
-2 -11 -28 -24 -57 -13 -29 -54 -127 -91 -218 -37 -91 -71 -168 -74 -172 -4
-4 -29 45 -56 110 -27 64 -61 145 -77 180 -15 34 -28 65 -28 67 0 3 -9 24 -19
48 -21 45 -194 454 -233 549 -20 52 -37 72 -39 51z"/>
<path d="M53967 26343 c-19 -47 -206 -462 -252 -561 -19 -40 -35 -75 -35 -78
0 -3 -17 -42 -39 -87 -21 -45 -45 -98 -54 -117 -9 -19 -59 -132 -113 -250 -53
-118 -107 -239 -120 -267 l-24 -53 101 0 100 0 36 78 c19 42 49 106 65 142 16
36 37 82 45 103 l15 37 296 -2 c250 -3 296 -5 303 -18 10 -16 77 -165 125
-272 l29 -67 103 -1 c56 0 102 1 102 3 0 2 -11 25 -24 53 -13 27 -70 150 -126
274 -56 124 -113 248 -125 275 -13 28 -71 156 -130 285 -59 129 -122 267 -140
305 -17 39 -47 104 -65 145 -52 116 -55 118 -73 73z m73 -519 c27 -59 50 -108
50 -110 0 -2 15 -36 34 -76 19 -40 46 -99 59 -130 l26 -58 -220 0 c-120 0
-219 2 -219 5 0 2 14 35 31 72 17 38 42 91 54 118 34 73 106 236 116 263 5 12
11 22 13 22 3 0 28 -48 56 -106z"/>
<path d="M54815 25655 l0 -725 96 0 96 0 1 488 c0 268 1 491 1 496 1 5 49 -40
107 -100 58 -60 203 -209 322 -330 120 -122 304 -310 410 -418 154 -158 192
-193 193 -174 1 30 1 1421 0 1431 -1 4 -44 7 -96 7 l-95 0 0 -500 0 -501 -154
158 c-85 87 -191 196 -236 243 -301 311 -634 650 -639 650 -3 0 -6 -326 -6
-725z"/>
<path d="M56828 26342 c-9 -20 -62 -138 -118 -262 -133 -294 -127 -279 -213
-470 -41 -91 -115 -255 -165 -365 -49 -110 -101 -226 -115 -257 l-26 -58 102
0 102 1 70 157 c38 86 74 167 80 179 l10 23 295 0 295 0 80 -178 81 -177 101
-3 102 -3 -16 38 c-8 21 -31 72 -50 113 -19 41 -66 145 -105 230 -74 164 -107
234 -169 368 -22 46 -39 85 -39 87 0 1 -17 41 -39 87 -21 45 -62 135 -91 198
-29 63 -72 157 -96 209 -24 51 -44 97 -44 102 0 24 -18 13 -32 -19z m72 -518
c27 -58 50 -107 50 -109 0 -2 17 -41 38 -87 22 -46 48 -103 59 -128 l21 -45
-216 -3 c-118 -1 -217 -1 -218 1 -3 3 53 133 127 295 10 23 28 61 38 85 11 23
25 54 30 70 6 15 13 27 16 27 3 0 27 -48 55 -106z"/>
<path d="M60584 26273 c-15 -60 -29 -112 -30 -118 -1 -5 -18 -73 -39 -150 -36
-135 -54 -204 -110 -420 -14 -55 -35 -133 -46 -173 -11 -40 -22 -81 -24 -92
-2 -10 -20 -80 -40 -156 -20 -77 -39 -146 -40 -154 -2 -8 -8 -30 -14 -48 l-10
-33 96 3 96 3 18 65 c9 36 31 117 48 181 17 64 33 124 35 135 7 33 88 339 92
345 2 3 6 19 9 35 3 16 11 51 18 79 l13 49 27 -67 c15 -37 36 -86 46 -110 11
-23 38 -87 61 -142 23 -55 47 -113 55 -130 7 -16 43 -102 80 -190 37 -88 75
-178 84 -200 10 -22 24 -55 32 -74 l15 -34 59 139 c32 76 66 157 75 179 18 40
180 424 203 479 7 16 24 54 38 85 l25 55 32 -124 c17 -69 49 -195 72 -280 22
-85 59 -228 81 -317 l41 -163 95 0 c94 0 95 0 91 23 -3 12 -29 112 -57 222
-29 110 -54 207 -56 215 -19 71 -54 204 -100 381 -31 115 -58 217 -60 227 -12
59 -101 382 -105 382 -3 0 -43 -91 -89 -202 -80 -193 -114 -273 -147 -345 -8
-17 -14 -35 -14 -40 0 -5 -8 -27 -19 -49 -10 -21 -47 -106 -81 -189 -92 -221
-80 -211 -122 -108 -52 125 -266 630 -287 678 -10 22 -38 88 -62 147 -24 59
-47 108 -50 108 -3 0 -19 -48 -35 -107z"/>
<path d="M17514 26360 c-54 -11 -150 -61 -190 -98 -76 -71 -114 -154 -114
-251 0 -104 48 -203 138 -282 42 -37 166 -102 292 -154 61 -26 142 -77 174
-112 156 -164 34 -389 -199 -367 -109 10 -181 56 -246 157 -21 32 -39 63 -41
68 -2 7 -40 0 -98 -16 -52 -15 -96 -28 -98 -30 -1 -1 16 -39 39 -85 66 -132
172 -227 305 -275 77 -27 244 -29 318 -4 219 75 334 290 275 513 -33 124 -148
243 -304 316 -204 94 -273 132 -310 170 -37 38 -40 46 -40 95 0 66 23 100 91
135 42 21 61 25 139 24 101 -1 129 -11 207 -77 l47 -39 75 62 c72 60 75 63 60
84 -34 53 -142 121 -241 152 -58 18 -222 27 -279 14z"/>
<path d="M28429 26365 c-2 -1 -22 -5 -44 -9 -139 -20 -290 -102 -409 -221 -84
-84 -134 -162 -167 -260 -36 -105 -39 -122 -39 -235 -1 -220 72 -389 229 -538
93 -89 192 -146 316 -183 101 -31 310 -34 420 -8 215 52 412 209 505 403 73
151 92 348 48 511 -66 250 -308 473 -574 529 -58 12 -275 21 -285 11z m301
-229 c303 -104 453 -415 338 -704 -40 -102 -160 -229 -265 -282 -114 -57 -309
-73 -424 -37 -119 38 -178 75 -265 164 -98 101 -142 210 -142 355 -1 242 170
454 415 518 99 26 245 20 343 -14z"/>
<path d="M41778 26365 c-1 -2 -21 -6 -43 -9 -215 -34 -433 -194 -543 -398 -17
-32 -29 -58 -25 -58 3 0 1 -6 -5 -13 -10 -12 -22 -57 -37 -137 -8 -41 -8 -194
-1 -230 3 -14 8 -38 12 -55 34 -168 158 -341 325 -450 54 -36 174 -97 182 -93
1 1 27 -5 57 -13 57 -14 276 -19 340 -8 109 20 250 81 325 141 69 56 147 140
186 201 107 165 139 400 83 597 -71 245 -308 458 -573 515 -56 12 -273 20
-283 10z m257 -214 c130 -31 284 -143 349 -254 85 -144 94 -339 24 -487 -68
-143 -222 -268 -374 -303 -67 -16 -216 -15 -286 2 -182 43 -345 187 -403 356
-22 63 -30 206 -16 265 7 25 14 54 16 65 12 52 82 160 142 216 75 72 194 134
277 146 23 3 42 6 44 8 8 7 183 -4 227 -14z"/>
<path d="M58150 26356 c-234 -53 -420 -196 -521 -401 -48 -98 -68 -176 -73
-282 -10 -220 66 -407 230 -570 70 -70 99 -90 186 -132 57 -27 119 -52 138
-55 19 -3 46 -9 60 -12 55 -14 306 -13 376 0 229 45 419 205 507 426 32 81 36
103 44 218 l6 92 -299 -2 -299 -3 -1 -92 c-1 -79 1 -93 15 -94 9 0 93 -1 188
-1 195 -1 182 8 130 -97 -86 -174 -254 -261 -498 -256 -173 3 -307 52 -407
148 -298 286 -192 757 200 894 97 34 251 39 359 12 94 -24 199 -76 276 -139
l61 -50 73 71 72 71 -34 30 c-139 123 -268 189 -434 224 -59 12 -300 12 -355
0z"/>
<path d="M11289 26323 c-1 -5 -2 -320 -3 -700 l-1 -693 96 0 96 0 -1 295 c-1
294 -1 295 20 295 17 0 63 -63 215 -294 l194 -295 112 0 113 -1 -200 300
c-111 166 -198 305 -196 309 3 5 19 11 36 14 98 20 224 105 275 187 60 96 71
248 25 345 -52 109 -180 199 -325 230 -74 16 -454 22 -456 8z m402 -167 c54
-8 140 -57 164 -94 65 -100 54 -224 -27 -299 -24 -22 -107 -58 -155 -68 -16
-3 -65 -8 -110 -11 -66 -5 -83 -4 -84 7 0 8 -1 118 -2 246 l-2 232 95 -5 c52
-2 107 -6 121 -8z"/>
<path d="M12360 25630 l0 -700 388 0 389 0 1 95 1 95 -295 0 -294 0 0 240 0
240 294 0 293 0 0 95 0 95 -293 0 -294 0 0 175 0 175 293 2 292 3 1 93 1 92
-388 0 -389 0 0 -700z"/>
<path d="M14753 25630 l-1 -700 324 0 324 0 0 95 0 95 -229 0 -228 0 -1 588
c0 323 -1 595 -1 605 -1 15 -12 17 -95 17 l-93 0 0 -700z"/>
<path d="M16190 25630 l0 -700 388 2 387 3 2 93 1 92 -294 0 -294 0 0 240 0
240 294 0 294 0 0 95 -1 95 -293 0 -294 0 0 175 0 175 295 0 295 0 0 95 0 95
-390 0 -390 0 0 -700z"/>
<path d="M18230 26235 l0 -95 165 0 c125 0 165 -3 166 -12 0 -7 1 -280 1 -605
l1 -593 94 0 c67 0 93 3 94 13 0 6 1 278 1 602 l1 590 166 5 166 5 2 93 2 92
-429 0 -430 0 0 -95z"/>
<path d="M20420 26235 l0 -95 168 0 167 0 -2 -605 -1 -605 94 0 c91 0 94 1 95
23 0 12 1 283 2 602 l2 580 166 3 165 2 1 95 0 95 -428 0 -429 0 0 -95z"/>
<path d="M21480 25630 l0 -700 389 0 389 0 0 95 0 95 -294 0 -294 0 0 240 0
240 294 0 293 0 1 95 0 95 -294 0 -294 0 0 175 0 175 295 0 294 0 -1 95 -1 95
-388 0 -389 0 0 -700z"/>
<path d="M25620 25631 l0 -701 95 0 95 0 1 33 c0 17 1 149 1 293 l0 261 63 2
c34 1 71 3 81 5 10 2 41 7 68 10 119 16 227 68 301 144 78 79 109 156 107 268
-3 167 -115 293 -321 361 -33 11 -106 17 -268 20 l-223 5 0 -701z m410 518
c69 -14 105 -33 142 -73 58 -62 75 -156 43 -234 -41 -98 -133 -141 -329 -156
l-74 -6 0 237 c0 165 3 240 11 245 15 9 137 1 207 -13z"/>
<path d="M26735 25633 l0 -698 95 0 95 0 2 280 c1 154 2 286 2 293 1 6 9 12
19 12 13 0 53 -53 130 -167 61 -93 115 -172 119 -178 4 -5 14 -22 22 -37 8
-16 18 -28 23 -28 4 0 8 -4 8 -10 0 -8 56 -96 70 -110 3 -3 11 -17 19 -32 l14
-28 113 0 113 0 -200 300 c-110 166 -197 304 -195 309 5 7 53 21 71 20 8 0
138 70 155 84 53 43 102 115 122 180 65 216 -54 411 -294 481 -75 21 -104 24
-293 25 l-210 2 0 -698z m405 521 c125 -19 201 -100 206 -218 6 -158 -100
-238 -338 -253 -76 -5 -78 -4 -79 19 0 37 0 306 0 391 l1 77 83 -4 c45 -3 102
-8 127 -12z"/>
<path d="M29610 25631 l0 -701 95 0 c69 0 95 3 96 13 0 6 1 137 1 290 1 195 4
280 12 282 6 2 49 6 96 9 192 12 310 56 405 154 94 95 123 194 101 335 -14 88
-103 200 -198 248 -104 53 -151 61 -385 66 l-223 5 0 -701z m410 518 c122 -24
200 -110 200 -221 0 -151 -119 -233 -351 -244 l-66 -2 0 243 0 243 78 -3 c43
-2 105 -9 139 -16z"/>
<path d="M30670 25630 l0 -700 390 0 390 0 -2 95 -1 95 -293 0 -294 0 0 240 0
240 294 0 294 0 0 95 0 95 -294 0 -294 0 0 175 0 175 293 2 292 3 3 93 3 92
-391 0 -390 0 0 -700z"/>
<path d="M31705 25633 l0 -698 96 -3 97 -3 0 278 c0 153 1 286 1 296 1 13 7
17 22 15 14 -2 77 -89 212 -295 l192 -292 108 0 c59 -1 107 3 107 8 0 4 -9 20
-20 34 -11 14 -20 30 -20 35 0 6 -3 12 -7 14 -7 3 -48 61 -78 110 -5 9 -41 63
-80 120 -38 56 -74 110 -80 119 -5 9 -32 49 -58 89 -26 40 -46 75 -43 77 3 3
34 16 70 28 148 52 235 130 276 249 22 66 22 201 -1 251 -61 131 -189 225
-349 255 -25 5 -135 9 -245 10 l-200 1 0 -698z m427 517 c113 -30 178 -104
183 -206 7 -133 -69 -217 -226 -250 -13 -2 -61 -7 -106 -10 l-83 -6 -1 44 c-1
50 -1 442 0 445 3 6 198 -8 233 -17z"/>
<path d="M32710 26235 l0 -95 165 0 c125 0 165 -3 166 -12 0 -7 1 -280 1 -605
l1 -593 94 0 93 0 1 38 c0 20 1 291 2 602 l2 565 167 3 167 2 -1 95 0 95 -429
0 -429 0 0 -95z"/>
<path d="M33732 26277 c18 -29 38 -62 44 -73 7 -10 95 -156 195 -324 l184
-305 2 -310 c1 -170 2 -316 2 -322 1 -10 27 -13 96 -13 l95 0 1 38 c0 20 0
163 0 317 l0 280 142 235 c77 129 172 287 210 350 38 63 78 130 89 148 l20 32
-109 0 -108 0 -130 -217 c-71 -119 -147 -245 -168 -280 l-39 -64 -81 133 c-44
73 -121 199 -170 281 l-90 147 -109 0 -109 0 33 -53z"/>
<path d="M35649 26308 c0 -12 -1 -327 -1 -698 l0 -675 268 1 c262 1 271 2 357
28 144 43 226 91 316 185 121 127 190 290 195 456 8 259 -129 509 -344 628
-51 28 -174 71 -235 82 -22 4 -156 9 -297 12 l-258 5 -1 -24z m521 -187 c126
-24 210 -69 280 -149 90 -102 134 -216 133 -349 -2 -218 -145 -407 -353 -467
-82 -23 -103 -26 -252 -31 l-138 -6 0 512 0 512 143 -7 c78 -4 162 -10 187
-15z"/>
<path d="M36990 25630 l0 -700 389 0 388 0 1 95 0 95 -294 0 -294 0 0 240 0
240 294 0 293 0 1 95 0 95 -294 0 -294 0 0 175 0 175 294 0 295 0 -1 95 0 95
-389 0 -389 0 0 -700z"/>
<path d="M37889 26308 c8 -22 69 -161 112 -255 29 -65 53 -120 89 -202 17 -40
47 -106 66 -147 19 -41 34 -76 34 -79 0 -2 13 -32 29 -67 37 -82 44 -97 177
-398 62 -140 117 -256 121 -257 5 -2 17 16 27 39 28 67 41 97 85 191 23 48 41
89 41 92 0 2 17 41 39 87 34 73 131 288 189 418 63 142 156 351 172 385 10 22
34 75 54 119 20 43 36 82 36 87 0 5 -45 9 -99 9 l-99 0 -20 -42 c-11 -24 -59
-131 -107 -238 -108 -243 -124 -278 -141 -315 -7 -16 -49 -110 -92 -208 -44
-99 -82 -175 -85 -170 -3 4 -32 69 -65 143 -33 74 -73 164 -89 200 -16 36 -85
192 -154 347 l-124 282 -102 1 c-102 0 -102 0 -94 -22z"/>
<path d="M39340 25630 l0 -700 388 0 389 0 -1 93 -1 92 -292 3 -293 2 0 240 0
240 293 0 294 0 0 95 0 95 -293 0 -294 0 0 175 0 175 293 0 294 0 -1 93 -1 92
-387 3 -388 2 0 -700z"/>
<path d="M40363 25630 l0 -700 324 0 323 0 0 95 0 95 -229 0 -230 0 1 603 1
602 -95 3 -95 3 0 -701z"/>
<path d="M42960 25631 l0 -701 95 0 95 0 1 43 c0 23 0 154 0 290 0 185 3 249
12 252 7 2 50 6 97 9 187 12 309 57 401 149 107 107 141 256 89 392 -40 105
-148 193 -296 241 -36 12 -106 17 -271 21 l-223 5 0 -701z m385 525 c137 -20
225 -108 225 -226 0 -91 -39 -154 -120 -195 -63 -31 -105 -41 -227 -49 l-72
-5 1 244 1 244 86 -5 c47 -3 95 -6 106 -8z"/>
<path d="M45760 25630 l0 -700 388 0 388 0 1 95 1 95 -294 0 -294 0 0 240 0
240 293 0 294 0 0 95 1 95 -294 0 -294 0 0 175 0 175 293 0 293 0 1 95 1 95
-389 0 -389 0 0 -700z"/>
<path d="M48180 26235 l0 -95 166 -2 166 -3 0 -602 0 -603 94 0 c68 0 94 3 95
13 0 6 1 279 1 605 l1 592 167 0 167 0 0 95 -1 95 -428 0 -428 0 0 -95z"/>
<path d="M59340 25630 l0 -700 388 0 389 0 0 95 -1 95 -293 0 -293 0 0 240 0
240 294 0 293 0 0 95 0 95 -294 0 -293 0 0 175 0 175 293 0 294 0 -1 93 -1 92
-387 3 -388 2 0 -700z"/>
<path d="M62060 25630 l0 -700 388 0 389 0 0 95 -1 95 -293 0 -293 0 0 240 0
240 294 0 293 0 0 95 0 95 -294 0 -293 0 0 175 0 175 293 0 294 0 -1 93 -1 92
-387 3 -388 2 0 -700z"/>
<path d="M64470 26235 l0 -95 165 0 c125 0 165 -3 166 -12 0 -7 1 -280 1 -605
l1 -593 94 0 93 0 1 38 c0 20 1 292 1 605 l0 567 169 0 168 0 -1 95 0 95 -429
0 -429 0 0 -95z"/>
</g>
</svg>
